<svg id="visual" viewBox="0 0 900 600" width="900" height="600" xmlns="http://www.w3.org/2000/svg" xmlns:xlink="http://www.w3.org/1999/xlink" version="1.1"><rect x="0" y="0" width="900" height="600" fill="#001220"></rect><defs><linearGradient id="grad1_0" x1="33.3%" y1="100%" x2="100%" y2="0%"><stop offset="20%" stop-color="#001220" stop-opacity="1"></stop><stop offset="80%" stop-color="#001220" stop-opacity="1"></stop></linearGradient></defs><defs><linearGradient id="grad2_0" x1="0%" y1="100%" x2="66.7%" y2="0%"><stop offset="20%" stop-color="#001220" stop-opacity="1"></stop><stop offset="80%" stop-color="#001220" stop-opacity="1"></stop></linearGradient></defs><g transform="translate(900, 600)"><path d="M-405.6 0C-398.1 -76.3 -390.6 -152.6 -351.3 -202.8C-312 -253 -240.8 -277.1 -177 -306.6C-113.2 -336 -56.6 -370.8 0 -405.6L0 0Z" fill="#7be50a"></path></g><g transform="translate(0, 0)"><path d="M405.6 0C353.7 46.7 301.8 93.4 274.5 158.5C247.2 223.6 244.5 307 202.8 351.3C161.2 395.5 80.6 400.6 0 405.6L0 0Z" fill="#7be50a"></path></g></svg>