<svg id="visual" viewBox="0 0 900 600" width="900" height="600" xmlns="http://www.w3.org/2000/svg" xmlns:xlink="http://www.w3.org/1999/xlink" version="1.1"><path d="M0 85L13.7 87C27.3 89 54.7 93 82 92C109.3 91 136.7 85 163.8 82C191 79 218 79 245.2 75C272.3 71 299.7 63 327 56C354.3 49 381.7 43 409 40C436.3 37 463.7 37 491 47C518.3 57 545.7 77 573 83C600.3 89 627.7 81 654.8 74C682 67 709 61 736.2 63C763.3 65 790.7 75 818 80C845.3 85 872.7 85 886.3 85L900 85L900 0L886.3 0C872.7 0 845.3 0 818 0C790.7 0 763.3 0 736.2 0C709 0 682 0 654.8 0C627.7 0 600.3 0 573 0C545.7 0 518.3 0 491 0C463.7 0 436.3 0 409 0C381.7 0 354.3 0 327 0C299.7 0 272.3 0 245.2 0C218 0 191 0 163.8 0C136.7 0 109.3 0 82 0C54.7 0 27.3 0 13.7 0L0 0Z" fill="#86dcb0"></path><path d="M0 169L13.7 166C27.3 163 54.7 157 82 151C109.3 145 136.7 139 163.8 147C191 155 218 177 245.2 178C272.3 179 299.7 159 327 142C354.3 125 381.7 111 409 114C436.3 117 463.7 137 491 154C518.3 171 545.7 185 573 190C600.3 195 627.7 191 654.8 177C682 163 709 139 736.2 130C763.3 121 790.7 127 818 139C845.3 151 872.7 169 886.3 178L900 187L900 83L886.3 83C872.7 83 845.3 83 818 78C790.7 73 763.3 63 736.2 61C709 59 682 65 654.8 72C627.7 79 600.3 87 573 81C545.7 75 518.3 55 491 45C463.7 35 436.3 35 409 38C381.7 41 354.3 47 327 54C299.7 61 272.3 69 245.2 73C218 77 191 77 163.8 80C136.7 83 109.3 89 82 90C54.7 91 27.3 87 13.7 85L0 83Z" fill="#69d39e"></path><path d="M0 265L13.7 260C27.3 255 54.7 245 82 244C109.3 243 136.7 251 163.8 266C191 281 218 303 245.2 300C272.3 297 299.7 269 327 257C354.3 245 381.7 249 409 258C436.3 267 463.7 281 491 292C518.3 303 545.7 311 573 314C600.3 317 627.7 315 654.8 310C682 305 709 297 736.2 291C763.3 285 790.7 281 818 274C845.3 267 872.7 257 886.3 252L900 247L900 185L886.3 176C872.7 167 845.3 149 818 137C790.7 125 763.3 119 736.2 128C709 137 682 161 654.8 175C627.7 189 600.3 193 573 188C545.7 183 518.3 169 491 152C463.7 135 436.3 115 409 112C381.7 109 354.3 123 327 140C299.7 157 272.3 177 245.2 176C218 175 191 153 163.8 145C136.7 137 109.3 143 82 149C54.7 155 27.3 161 13.7 164L0 167Z" fill="#47ca8b"></path><path d="M0 403L13.7 406C27.3 409 54.7 415 82 430C109.3 445 136.7 469 163.8 477C191 485 218 477 245.2 469C272.3 461 299.7 453 327 436C354.3 419 381.7 393 409 391C436.3 389 463.7 411 491 421C518.3 431 545.7 429 573 432C600.3 435 627.7 443 654.8 448C682 453 709 455 736.2 442C763.3 429 790.7 401 818 398C845.3 395 872.7 417 886.3 428L900 439L900 245L886.3 250C872.7 255 845.3 265 818 272C790.7 279 763.3 283 736.2 289C709 295 682 303 654.8 308C627.7 313 600.3 315 573 312C545.7 309 518.3 301 491 290C463.7 279 436.3 265 409 256C381.7 247 354.3 243 327 255C299.7 267 272.3 295 245.2 298C218 301 191 279 163.8 264C136.7 249 109.3 241 82 242C54.7 243 27.3 253 13.7 258L0 263Z" fill="#3daf78"></path><path d="M0 601L13.7 601C27.3 601 54.7 601 82 601C109.3 601 136.7 601 163.8 601C191 601 218 601 245.2 601C272.3 601 299.7 601 327 601C354.3 601 381.7 601 409 601C436.3 601 463.7 601 491 601C518.3 601 545.7 601 573 601C600.3 601 627.7 601 654.8 601C682 601 709 601 736.2 601C763.3 601 790.7 601 818 601C845.3 601 872.7 601 886.3 601L900 601L900 437L886.3 426C872.7 415 845.3 393 818 396C790.7 399 763.3 427 736.2 440C709 453 682 451 654.8 446C627.7 441 600.3 433 573 430C545.7 427 518.3 429 491 419C463.7 409 436.3 387 409 389C381.7 391 354.3 417 327 434C299.7 451 272.3 459 245.2 467C218 475 191 483 163.8 475C136.7 467 109.3 443 82 428C54.7 413 27.3 407 13.7 404L0 401Z" fill="#339566"></path></svg>